<?xml version="1.0" encoding="iso-8859-1"?>
<!-- Generator: Adobe Illustrator 19.0.0, SVG Export Plug-In . SVG Version: 6.00 Build 0)  -->
<svg version="1.1" id="Layer_1" xmlns="http://www.w3.org/2000/svg" xmlns:xlink="http://www.w3.org/1999/xlink" x="0px" y="0px"
	 viewBox="0 0 512 512" style="enable-background:new 0 0 512 512;" xml:space="preserve">
<g>
	<g>
		<g>
			<path d="M0,0v512h512V0H0z M448,426.667c-11.797,0-21.333-9.557-21.333-21.333c0-11.755-9.557-21.333-21.333-21.333
				S384,393.579,384,405.333c0,11.776-9.536,21.333-21.333,21.333s-21.333-9.557-21.333-21.333c0-26.56,16.277-49.387,39.381-59.051
				C374.272,330.859,359.061,320,341.333,320c-23.531,0-42.667,19.136-42.667,42.667c0,11.776-9.536,21.333-21.333,21.333
				C265.536,384,256,374.443,256,362.667c0-47.061,38.272-85.333,85.333-85.333c40.875,0,75.029,28.907,83.328,67.307
				c25.813,8.256,44.672,32.192,44.672,60.693C469.333,417.109,459.797,426.667,448,426.667z M469.333,234.667
				c-11.797,0-21.333-9.557-21.333-21.333c0-21.525-16.192-39.701-35.349-39.701c-19.499,0-35.349,17.323-35.349,38.635
				c0,11.776-9.557,21.333-21.333,21.333c-11.797,0-21.333-9.557-21.333-21.333c0-44.053,33.856-79.851,75.84-81.088
				c-6.997-29.696-31.829-51.819-61.547-51.819c-21.803,0-41.045,11.904-52.544,29.973l-0.533,0.896
				c-1.941,3.157-3.627,6.549-5.077,10.069c-0.491,1.195-0.853,2.432-1.28,3.669c-0.917,2.624-1.707,5.312-2.325,8.085
				c-0.299,1.259-0.555,2.517-0.768,3.776c-0.021,0.107-0.021,0.235-0.043,0.341c10.667,4.459,20.48,11.221,28.523,20.352
				c7.765,8.853,6.912,22.336-1.92,30.123c-8.832,7.765-22.315,6.933-30.123-1.92c-6.037-6.869-13.952-10.731-22.272-11.541
				c-3.797-0.384-7.531-0.299-11.093,0.597c-2.645,0.661-5.184,1.707-7.573,2.987c-0.533,0.277-1.003,0.661-1.493,0.96
				c-1.856,1.109-3.627,2.347-5.248,3.797c-0.491,0.448-0.96,0.917-1.429,1.365c-1.536,1.536-2.965,3.221-4.245,5.035
				c-0.363,0.491-0.725,0.96-1.045,1.472c-1.387,2.197-2.624,4.544-3.584,7.061c-0.107,0.256-0.256,0.491-0.363,0.768l-0.341,0.939
				c-2.325,6.933-2.901,14.677-1.173,22.421c2.539,11.499-4.715,22.891-16.213,25.451c-1.557,0.341-3.093,0.512-4.629,0.512
				c-9.771,0-18.603-6.763-20.821-16.725c-1.536-6.933-1.877-13.824-1.664-20.651c-3.712,0.896-7.232,2.304-10.453,4.416
				c-3.221,2.133-6.208,4.693-8.747,7.936c-1.728,2.219-3.157,4.629-4.373,7.147c-0.32,0.661-0.491,1.365-0.789,2.027
				c-0.789,1.941-1.536,3.925-2.027,5.973c-0.149,0.661-0.235,1.344-0.363,2.027c-0.427,2.197-0.704,4.416-0.768,6.677v1.515
				c0.043,2.56,0.277,5.12,0.768,7.68c0.149,0.704,0.213,1.408,0.384,2.091l0.256,1.173c2.005,7.189,5.973,13.824,11.84,18.923
				c8.875,7.744,9.813,21.205,2.069,30.101c-4.224,4.843-10.155,7.317-16.085,7.317c-4.992,0-9.984-1.728-14.037-5.248
				c-9.6-8.363-16.469-18.837-21.141-30.144c-17.515,3.477-33.024,14.208-42.645,30.976c-18.432,32.085-7.317,79.253,23.339,98.965
				c9.92,6.379,12.779,19.563,6.4,29.483C99.2,444.544,92.331,448,85.312,448c-3.968,0-7.936-1.088-11.52-3.392
				c-50.24-32.299-67.285-103.787-37.248-156.117c9.963-17.344,24.555-31.147,41.323-40.469
				c-18.859-24.448-29.376-54.805-29.376-87.168c0-9.493,1.109-19.093,3.477-30.208l4.736-22.315l21.952,6.229
				c6.677,1.877,12.181,2.773,17.344,2.773c35.285,0,64-28.715,64-64c0-1.792-0.299-3.52-0.533-5.269l-3.349-26.667h24.149h0.171
				c37.739,0,72.789,16.533,97.707,44.16c18.837-17.749,43.499-28.864,70.784-28.864c57.451,0,104.128,47.979,106.027,107.627
				c21.44,14.699,35.712,40.085,35.712,69.013C490.667,225.109,481.131,234.667,469.333,234.667z"/>
			<path d="M201.865,66.46c-6.677,54.187-54.123,96.171-110.699,93.419v0.981c0,23.339,7.637,45.205,21.419,62.464
				c2.88-10.069,7.637-19.584,14.208-28.011c2.347-3.008,4.885-5.76,7.552-8.341c0.832-0.811,1.707-1.515,2.56-2.283
				c1.941-1.728,3.925-3.371,5.973-4.885c0.981-0.704,1.963-1.387,2.965-2.048c2.24-1.472,4.523-2.816,6.869-4.032
				c0.811-0.427,1.621-0.896,2.453-1.301c6.613-3.136,13.568-5.291,20.757-6.379c0.597-0.107,1.195-0.128,1.792-0.192
				c2.88-0.384,5.781-0.576,8.704-0.597c1.152,0,2.304,0.021,3.477,0.064c1.045,0.064,2.112-0.021,3.157,0.085
				c1.344-2.027,3.008-3.776,4.523-5.653c1.152-1.451,2.197-2.944,3.435-4.309c2.112-2.304,4.416-4.309,6.763-6.315
				c1.472-1.28,2.816-2.645,4.395-3.819c2.517-1.877,5.269-3.392,8-4.949c1.621-0.917,3.115-2.005,4.8-2.816
				c4.288-2.048,8.768-3.669,13.419-4.864c0.277-0.085,0.512-0.213,0.789-0.299c0.021,0,0.064,0,0.107-0.021
				c1.493-0.363,2.987-0.683,4.48-0.96c0.171-1.173,0.555-2.325,0.768-3.499c0.341-1.92,0.789-3.797,1.216-5.696
				c1.088-4.672,2.453-9.216,4.075-13.717c0.683-1.813,1.259-3.669,2.005-5.44c0.256-0.619,0.427-1.301,0.704-1.92
				C239.667,83.484,221.854,71.366,201.865,66.46z"/>
		</g>
	</g>
</g>
<g>
</g>
<g>
</g>
<g>
</g>
<g>
</g>
<g>
</g>
<g>
</g>
<g>
</g>
<g>
</g>
<g>
</g>
<g>
</g>
<g>
</g>
<g>
</g>
<g>
</g>
<g>
</g>
<g>
</g>
</svg>
