<?xml version="1.0" standalone="no"?>
<!DOCTYPE svg PUBLIC "-//W3C//DTD SVG 20010904//EN"
 "http://www.w3.org/TR/2001/REC-SVG-20010904/DTD/svg10.dtd">
<svg version="1.0" xmlns="http://www.w3.org/2000/svg"
 width="1280.000000pt" height="1090.000000pt" viewBox="0 0 1280.000000 1090.000000"
 preserveAspectRatio="xMidYMid meet">
<g transform="translate(0.000000,1090.000000) scale(0.100000,-0.100000)"
fill="#000000" stroke="none">
<path d="M5040 10879 c-707 -71 -1270 -296 -1820 -727 -114 -90 -423 -398
-500 -499 -30 -40 -62 -75 -70 -78 -9 -3 -63 2 -120 10 -157 22 -452 20 -621
-5 -626 -92 -1179 -444 -1530 -974 -179 -270 -301 -589 -343 -897 -9 -63 -21
-144 -26 -181 -13 -85 -13 -218 -1 -289 6 -30 15 -94 21 -144 90 -736 560
-1388 1235 -1715 294 -142 566 -208 905 -217 220 -6 377 9 565 53 61 14 120
28 132 31 18 4 46 -18 140 -108 806 -775 1938 -1091 3038 -848 234 52 450 125
683 230 84 38 67 41 251 -40 205 -91 504 -180 741 -220 631 -108 1244 -42
1840 197 511 206 988 562 1346 1008 80 99 90 104 209 104 24 0 96 9 162 20
578 98 1071 467 1329 995 150 309 219 692 176 990 -43 299 -121 527 -258 753
-260 428 -701 737 -1193 834 -113 22 -113 22 -139 62 -192 305 -334 488 -532
686 -511 510 -1176 846 -1875 944 -331 47 -476 52 -736 27 -413 -40 -762 -125
-1070 -262 -181 -80 -168 -77 -241 -45 -420 187 -734 267 -1207 311 -201 18
-255 18 -491 -6z"/>
<path d="M3345 4537 c-184 -257 -489 -605 -714 -815 -185 -173 -267 -244 -566
-488 -310 -253 -384 -327 -430 -429 -43 -93 -56 -159 -56 -285 1 -323 194
-593 476 -665 245 -62 594 55 750 252 74 94 89 156 135 573 58 516 105 793
194 1143 46 177 156 522 215 671 18 43 30 80 29 81 -2 2 -16 -15 -33 -38z"/>
<path d="M7469 4073 c-247 -326 -511 -590 -932 -933 -243 -197 -285 -237 -324
-301 -49 -82 -66 -164 -61 -289 6 -122 34 -209 97 -300 48 -70 139 -144 211
-172 75 -29 229 -36 322 -14 135 31 282 125 339 214 47 74 54 111 94 467 63
562 145 923 309 1358 14 37 24 67 22 67 -2 0 -36 -44 -77 -97z"/>
<path d="M5504 3308 c-172 -237 -359 -453 -604 -699 -225 -226 -343 -330 -700
-620 -271 -220 -349 -298 -394 -392 -48 -101 -61 -166 -60 -292 1 -229 89
-422 254 -558 235 -195 653 -158 910 80 129 119 144 168 195 616 62 549 104
797 195 1153 45 178 158 529 223 697 15 37 25 67 23 67 -2 0 -21 -24 -42 -52z"/>
<path d="M8322 2688 c-344 -454 -647 -756 -1242 -1239 -269 -218 -348 -297
-394 -392 -67 -137 -82 -321 -41 -482 48 -189 180 -359 337 -434 100 -47 161
-61 273 -61 203 0 404 80 548 219 110 105 131 167 167 486 63 548 75 642 121
880 70 369 188 779 318 1103 11 28 19 52 17 52 -2 0 -48 -60 -104 -132z"/>
<path d="M2998 1351 c-167 -208 -323 -358 -626 -605 -211 -173 -236 -211 -236
-361 1 -137 51 -247 145 -315 52 -37 167 -74 211 -67 101 15 203 58 267 113
68 59 80 94 107 313 53 430 99 659 185 907 22 64 39 118 37 119 -2 2 -42 -45
-90 -104z"/>
</g>
</svg>
